<svg width="48" height="24" viewBox="0 0 48 24" fill="none" xmlns="http://www.w3.org/2000/svg">
<path d="M0.541608 5.78843V17.5007H4.16361V6.29619C4.87447 4.77292 6.4993 3.96051 8.09027 3.96051C8.90268 3.96051 9.74894 4.16361 10.426 4.60367L10.866 1.08322C10.2229 0.846262 9.51199 0.74471 8.83498 0.74471C6.73625 0.74471 4.84062 1.86178 4.06206 3.89281C3.99436 2.87729 3.82511 1.82793 3.622 0.913964H0C0.372355 2.57264 0.541608 4.12976 0.541608 5.78843Z" fill="#1A1A1A"/>
<path d="M13.9305 5.78843V24H17.5525V15.8082C18.6358 16.9591 20.0575 17.5007 21.6146 17.5007C27.1999 17.5007 30.0434 12.9986 30.0434 8.42877C30.0434 4.26516 27.6061 0.575459 22.9009 0.575459C20.6668 0.575459 18.6696 1.55712 17.4171 3.45275C17.3494 2.60649 17.214 1.72638 17.0109 0.913964H13.3551C13.7274 2.57264 13.9305 4.12976 13.9305 5.78843ZM17.5525 12.5585V6.19464C18.3988 4.70522 19.8544 3.65585 21.75 3.65585C24.8981 3.65585 26.5229 6.19464 26.5229 9.10578C26.5229 12.0508 24.8981 14.5896 21.6146 14.5896C19.8882 14.5896 18.5004 14.048 17.5525 12.5585Z" fill="#1A1A1A"/>
<path d="M45.6093 0L42.6982 2.06488C43.5106 2.64034 43.9506 3.5543 43.9506 4.67137C43.9506 6.9055 42.2581 10.3921 38.7038 14.3865L37.1805 0L31.3921 0.981664L31.189 1.76022H31.7306C32.7461 1.76022 33.2877 2.20028 33.5585 4.02821L35.4542 17.5007H36.3004C43.0367 11.2045 47.4711 6.29619 47.4711 3.04655C47.4711 1.76023 46.8279 0.812412 45.6093 0Z" fill="#1A1A1A"/>
</svg>
