<svg width="224" height="112" viewBox="0 0 224 112" fill="none" xmlns="http://www.w3.org/2000/svg">
<path d="M2.5275 27.0139V81.6712H19.4302V29.3835C22.7475 22.2749 30.3301 18.4836 37.7546 18.4836C41.5458 18.4836 45.4951 19.4314 48.6547 21.485L50.708 5.05628C47.7069 3.95047 44.3893 3.47656 41.2299 3.47656C31.4358 3.47656 22.5896 8.68956 18.9563 18.1677C18.6403 13.4286 17.8505 8.53159 16.9027 4.26641H0C1.73766 12.0069 2.5275 19.2735 2.5275 27.0139Z" fill="#1A1A1A"/>
<path d="M65.0114 27.0108V111.998H81.914V73.7697C86.9694 79.1406 93.604 81.6681 100.871 81.6681C126.935 81.6681 140.205 60.6583 140.205 39.3324C140.205 19.9022 128.831 2.68359 106.873 2.68359C96.4474 2.68359 87.1272 7.26468 81.2822 16.111C80.9662 12.1617 80.3344 8.05456 79.3866 4.26328H62.3262C64.0636 12.0038 65.0114 19.2703 65.0114 27.0108ZM81.914 58.6045V28.9064C85.8634 21.9558 92.6562 17.0588 101.502 17.0588C116.194 17.0588 123.776 28.9064 123.776 42.4918C123.776 56.2352 116.194 68.0829 100.871 68.0829C92.814 68.0829 86.3376 65.5555 81.914 58.6045Z" fill="#1A1A1A"/>
<path d="M212.846 0L199.26 9.63611C203.052 12.3216 205.105 16.5867 205.105 21.7997C205.105 32.2257 197.207 48.4965 180.62 67.137L173.511 0L146.499 4.5811L145.551 8.21436H148.078C152.817 8.21436 155.345 10.268 156.608 18.7983L165.455 81.6699H169.404C200.84 52.2877 221.534 29.3822 221.534 14.2172C221.534 8.21441 218.532 3.79126 212.846 0Z" fill="#1A1A1A"/>
</svg>
