<svg width="2742" height="1899" viewBox="0 0 2742 1899" fill="none" xmlns="http://www.w3.org/2000/svg">
<path d="M2735.4 948.51C2735.4 948.51 2653.49 948.51 2601 948.51H1826.28H765.412" stroke="#dddddd" stroke-width="5" stroke-linecap="round"/>
<path d="M650.982 869.127L709.54 910.37M722.001 919.154L761.848 947.49L722.001 919.154Z" stroke="#dddddd" stroke-width="5" stroke-linecap="round"/>
<path d="M600.367 833.415L610.267 840.449" stroke="#dddddd" stroke-width="5" stroke-linecap="round"/>
<path d="M586.188 823.363L596.088 830.398" stroke="#dddddd" stroke-width="5" stroke-linecap="round"/>
<path d="M572.061 813.405L581.961 820.439" stroke="#dddddd" stroke-width="5" stroke-linecap="round"/>
<path d="M516.77 774.431L526.67 781.465" stroke="#dddddd" stroke-width="5" stroke-linecap="round"/>
<path d="M437.688 718.685L447.588 725.72" stroke="#dddddd" stroke-width="5" stroke-linecap="round"/>
<path d="M423.793 708.948L433.693 715.982" stroke="#dddddd" stroke-width="5" stroke-linecap="round"/>
<path d="M405.48 695.982L415.38 703.017" stroke="#dddddd" stroke-width="5" stroke-linecap="round"/>
<path d="M391.299 686.043L401.199 693.078" stroke="#dddddd" stroke-width="5" stroke-linecap="round"/>
<path d="M370.229 671.19L380.129 678.225" stroke="#dddddd" stroke-width="5" stroke-linecap="round"/>
<path d="M341.902 651.167L351.802 658.202" stroke="#dddddd" stroke-width="5" stroke-linecap="round"/>
<path d="M500.158 762.777L510.058 769.812" stroke="#dddddd" stroke-width="5" stroke-linecap="round"/>
<path d="M486.291 753.002L496.191 760.037" stroke="#dddddd" stroke-width="5" stroke-linecap="round"/>
<path d="M613.432 850.055L616.937 845.095L620.441 840.137" stroke="#dddddd" stroke-width="5" stroke-linecap="round"/>
<path d="M619.912 854.623L623.418 849.663L626.921 844.705" stroke="#dddddd" stroke-width="5" stroke-linecap="round"/>
<path d="M626.049 858.949L629.554 853.989L633.058 849.031" stroke="#dddddd" stroke-width="5" stroke-linecap="round"/>
<path d="M632.148 863.248L635.654 858.288L639.158 853.33" stroke="#dddddd" stroke-width="5" stroke-linecap="round"/>
<path d="M562.08 813.857L565.586 808.897L569.089 803.939" stroke="#dddddd" stroke-width="5" stroke-linecap="round"/>
<path d="M555.309 809.084L558.814 804.124L562.318 799.166" stroke="#dddddd" stroke-width="5" stroke-linecap="round"/>
<path d="M549.098 804.706L552.603 799.746L556.107 794.788" stroke="#dddddd" stroke-width="5" stroke-linecap="round"/>
<path d="M542.896 800.335L546.402 795.374L549.906 790.417" stroke="#dddddd" stroke-width="5" stroke-linecap="round"/>
<path d="M536.695 795.963L540.201 791.003L543.704 786.045" stroke="#dddddd" stroke-width="5" stroke-linecap="round"/>
<path d="M530.092 791.308L533.597 786.348L537.101 781.39" stroke="#dddddd" stroke-width="5" stroke-linecap="round"/>
<path d="M476.654 753.64L480.16 748.68L483.663 743.722" stroke="#dddddd" stroke-width="5" stroke-linecap="round"/>
<path d="M470.34 749.189L473.845 744.229L477.349 739.271" stroke="#dddddd" stroke-width="5" stroke-linecap="round"/>
<path d="M464.08 744.776L467.586 739.816L471.089 734.858" stroke="#dddddd" stroke-width="5" stroke-linecap="round"/>
<path d="M457.617 740.222L461.123 735.262L464.626 730.304" stroke="#dddddd" stroke-width="5" stroke-linecap="round"/>
<path d="M451.393 735.833L454.898 730.873L458.402 725.915" stroke="#dddddd" stroke-width="5" stroke-linecap="round"/>
<path d="M382.867 687.53L386.373 682.57L389.876 677.612" stroke="#dddddd" stroke-width="5" stroke-linecap="round"/>
<path d="M361.936 672.775L365.441 667.815L368.945 662.857" stroke="#dddddd" stroke-width="5" stroke-linecap="round"/>
<path d="M354.662 667.648L358.168 662.688L361.671 657.73" stroke="#dddddd" stroke-width="5" stroke-linecap="round"/>
<path d="M652.008 877.247L655.513 872.287L659.017 867.329" stroke="#dddddd" stroke-width="5" stroke-linecap="round"/>
<path d="M1245.99 307.981L762.709 948.8" stroke="#dddddd" stroke-width="5" stroke-linecap="round"/>
<path d="M1224.26 326.684L1229.11 330.347L1233.95 334.009" stroke="#dddddd" stroke-width="5" stroke-linecap="round"/>
<path d="M1249.99 292.598L1254.83 296.261L1259.67 299.922" stroke="#dddddd" stroke-width="5" stroke-linecap="round"/>
<path d="M1255.65 285.094L1260.49 288.757L1265.34 292.418" stroke="#dddddd" stroke-width="5" stroke-linecap="round"/>
<path d="M1260.96 278.064L1265.8 281.727L1270.64 285.389" stroke="#dddddd" stroke-width="5" stroke-linecap="round"/>
<path d="M1266.22 271.091L1271.06 274.755L1275.9 278.416" stroke="#dddddd" stroke-width="5" stroke-linecap="round"/>
<path d="M1291.44 237.675L1296.28 241.338L1301.12 244.999" stroke="#dddddd" stroke-width="5" stroke-linecap="round"/>
<path d="M1309.65 213.542L1314.49 217.206L1319.33 220.867" stroke="#dddddd" stroke-width="5" stroke-linecap="round"/>
<path d="M1314.89 206.598L1319.73 210.261L1324.57 213.922" stroke="#dddddd" stroke-width="5" stroke-linecap="round"/>
<path d="M1320.02 199.795L1324.86 203.459L1329.71 207.12" stroke="#dddddd" stroke-width="5" stroke-linecap="round"/>
<path d="M1325.45 192.598L1330.3 196.261L1335.14 199.922" stroke="#dddddd" stroke-width="5" stroke-linecap="round"/>
<path d="M1331.16 185.032L1336 188.696L1340.85 192.357" stroke="#dddddd" stroke-width="5" stroke-linecap="round"/>
<path d="M1372.35 130.448L1377.2 134.111L1382.04 137.772" stroke="#dddddd" stroke-width="5" stroke-linecap="round"/>
<path d="M1377.64 123.448L1382.48 127.111L1387.32 130.772" stroke="#dddddd" stroke-width="5" stroke-linecap="round"/>
<path d="M1383.15 116.139L1387.99 119.803L1392.84 123.464" stroke="#dddddd" stroke-width="5" stroke-linecap="round"/>
<path d="M1400.77 92.7976L1405.61 96.461L1410.45 100.122" stroke="#dddddd" stroke-width="5" stroke-linecap="round"/>
<path d="M1442.02 38.1321L1446.86 41.7955L1451.71 45.4569" stroke="#dddddd" stroke-width="5" stroke-linecap="round"/>
<path d="M1447.24 31.217L1452.08 34.8804L1456.93 38.5418" stroke="#dddddd" stroke-width="5" stroke-linecap="round"/>
<path d="M1452.97 23.6243L1457.81 27.2877L1462.65 30.9491" stroke="#dddddd" stroke-width="5" stroke-linecap="round"/>
<path d="M1458.25 16.6221L1463.1 20.2855L1467.94 23.9469" stroke="#dddddd" stroke-width="5" stroke-linecap="round"/>
<path d="M1467.64 14.2669L1471.3 9.4223L1474.96 4.57959" stroke="#dddddd" stroke-width="5" stroke-linecap="round"/>
<path d="M1434.88 57.6695L1438.55 52.8249L1442.21 47.9822" stroke="#dddddd" stroke-width="5" stroke-linecap="round"/>
<path d="M1423 73.4143L1426.67 68.5698L1430.33 63.7271" stroke="#dddddd" stroke-width="5" stroke-linecap="round"/>
<path d="M1410.65 89.7816L1414.31 84.937L1417.98 80.0942" stroke="#dddddd" stroke-width="5" stroke-linecap="round"/>
<path d="M1392.44 113.91L1396.11 109.065L1399.77 104.222" stroke="#dddddd" stroke-width="5" stroke-linecap="round"/>
<path d="M1365.14 150.087L1368.81 145.243L1372.47 140.4" stroke="#dddddd" stroke-width="5" stroke-linecap="round"/>
<path d="M1352.73 166.537L1356.39 161.693L1360.05 156.85" stroke="#dddddd" stroke-width="5" stroke-linecap="round"/>
<path d="M1340.87 182.254L1344.53 177.41L1348.19 172.567" stroke="#dddddd" stroke-width="5" stroke-linecap="round"/>
<path d="M1301.85 233.953L1305.51 229.109L1309.18 224.266" stroke="#dddddd" stroke-width="5" stroke-linecap="round"/>
<path d="M1285.75 255.287L1289.42 250.443L1293.08 245.6" stroke="#dddddd" stroke-width="5" stroke-linecap="round"/>
<path d="M1275.08 269.425L1278.75 264.581L1282.41 259.738" stroke="#dddddd" stroke-width="5" stroke-linecap="round"/>
<path d="M1344.35 1893.73L762.709 948.8" stroke="#dddddd" stroke-width="5" stroke-linecap="round"/>
<path d="M1340 1875.21L1334.82 1878.38L1329.64 1881.55" stroke="#dddddd" stroke-width="5" stroke-linecap="round"/>
<path d="M1089.27 1495.86L1084.09 1499.04L1078.92 1502.21" stroke="#dddddd" stroke-width="5" stroke-linecap="round"/>
<path d="M1139.22 1577.02L1134.04 1580.2L1128.87 1583.37" stroke="#dddddd" stroke-width="5" stroke-linecap="round"/>
<path d="M1143.16 1583.43L1137.99 1586.61L1132.81 1589.78" stroke="#dddddd" stroke-width="5" stroke-linecap="round"/>
<path d="M1158.67 1608.62L1153.49 1611.8L1148.31 1614.97" stroke="#dddddd" stroke-width="5" stroke-linecap="round"/>
<path d="M1165.28 1619.36L1160.1 1622.54L1154.92 1625.71" stroke="#dddddd" stroke-width="5" stroke-linecap="round"/>
<path d="M1193.02 1664.45L1187.85 1667.62L1182.67 1670.8" stroke="#dddddd" stroke-width="5" stroke-linecap="round"/>
<path d="M1208.42 1689.47L1203.25 1692.64L1198.07 1695.82" stroke="#dddddd" stroke-width="5" stroke-linecap="round"/>
<path d="M1212.95 1696.83L1207.77 1700L1202.6 1703.17" stroke="#dddddd" stroke-width="5" stroke-linecap="round"/>
<path d="M1246 1750.53L1240.82 1753.7L1235.65 1756.88" stroke="#dddddd" stroke-width="5" stroke-linecap="round"/>
<path d="M1267.86 1786.04L1262.68 1789.22L1257.51 1792.39" stroke="#dddddd" stroke-width="5" stroke-linecap="round"/>
<path d="M1272.67 1793.87L1267.5 1797.04L1262.32 1800.21" stroke="#dddddd" stroke-width="5" stroke-linecap="round"/>
<path d="M1277.29 1801.36L1272.11 1804.54L1266.93 1807.71" stroke="#dddddd" stroke-width="5" stroke-linecap="round"/>
<path d="M1281.83 1808.75L1276.66 1811.92L1271.48 1815.1" stroke="#dddddd" stroke-width="5" stroke-linecap="round"/>
<path d="M1298.3 1847.09L1301.48 1852.27L1304.65 1857.44" stroke="#dddddd" stroke-width="5" stroke-linecap="round"/>
<path d="M1289.25 1832.39L1292.42 1837.56L1295.6 1842.74" stroke="#dddddd" stroke-width="5" stroke-linecap="round"/>
<path d="M1280.23 1817.7L1283.41 1822.88L1286.58 1828.05" stroke="#dddddd" stroke-width="5" stroke-linecap="round"/>
<path d="M1253.35 1774.02L1256.52 1779.2L1259.7 1784.37" stroke="#dddddd" stroke-width="5" stroke-linecap="round"/>
<path d="M1244.09 1758.98L1247.27 1764.15L1250.44 1769.33" stroke="#dddddd" stroke-width="5" stroke-linecap="round"/>
<path d="M1221.25 1721.86L1224.43 1727.04L1227.6 1732.22" stroke="#dddddd" stroke-width="5" stroke-linecap="round"/>
<path d="M1210.67 1704.7L1213.84 1709.88L1217.02 1715.06" stroke="#dddddd" stroke-width="5" stroke-linecap="round"/>
<path d="M1233.62 1741.96L1236.8 1747.16" stroke="#dddddd" stroke-width="5" stroke-linecap="round"/>
<path d="M1192.06 1674.43L1195.24 1679.61L1198.41 1684.79" stroke="#dddddd" stroke-width="5" stroke-linecap="round"/>
<path d="M1177.24 1650.35L1180.41 1655.53L1183.59 1660.7" stroke="#dddddd" stroke-width="5" stroke-linecap="round"/>
<path d="M1164.64 1629.87L1167.81 1635.05L1170.99 1640.23" stroke="#dddddd" stroke-width="5" stroke-linecap="round"/>
<path d="M1140.54 1590.76L1143.72 1595.93L1146.89 1601.11" stroke="#dddddd" stroke-width="5" stroke-linecap="round"/>
<path d="M1123.96 1563.82L1127.14 1569L1130.31 1574.17" stroke="#dddddd" stroke-width="5" stroke-linecap="round"/>
<path d="M1114.61 1548.58L1117.78 1553.76L1120.96 1558.94" stroke="#dddddd" stroke-width="5" stroke-linecap="round"/>
<path d="M1105.28 1533.43L1108.46 1538.61L1111.63 1543.79" stroke="#dddddd" stroke-width="5" stroke-linecap="round"/>
<path d="M1096.01 1518.36L1099.18 1523.54L1102.36 1528.72" stroke="#dddddd" stroke-width="5" stroke-linecap="round"/>
<path d="M1086.88 1503.53L1090.05 1508.71L1093.23 1513.88" stroke="#dddddd" stroke-width="5" stroke-linecap="round"/>
<path d="M731.57 730.251L762.71 948.8" stroke="#dddddd" stroke-width="5" stroke-linecap="round"/>
<path d="M725.619 688.495L726.476 694.508L727.334 700.518" stroke="#dddddd" stroke-width="5" stroke-linecap="round"/>
<path d="M720.275 651.009L721.133 657.022L721.99 663.032" stroke="#dddddd" stroke-width="5" stroke-linecap="round"/>
<path d="M715.105 614.712L715.963 620.725L716.82 626.735" stroke="#dddddd" stroke-width="5" stroke-linecap="round"/>
<path d="M712.248 594.655L713.105 600.668L713.963 606.678" stroke="#dddddd" stroke-width="5" stroke-linecap="round"/>
<path d="M708.281 566.828L709.139 572.841L709.996 578.852" stroke="#dddddd" stroke-width="5" stroke-linecap="round"/>
<path d="M703.055 530.146L703.912 536.159L704.769 542.169" stroke="#dddddd" stroke-width="5" stroke-linecap="round"/>
<path d="M699.168 502.88L700.025 508.893L700.883 514.903" stroke="#dddddd" stroke-width="5" stroke-linecap="round"/>
<path d="M696.297 482.719L697.154 488.732L698.011 494.742" stroke="#dddddd" stroke-width="5" stroke-linecap="round"/>
<path d="M692.58 456.642L693.437 462.655L694.295 468.665" stroke="#dddddd" stroke-width="5" stroke-linecap="round"/>
<path d="M690.018 438.651L690.875 444.664L691.732 450.674" stroke="#dddddd" stroke-width="5" stroke-linecap="round"/>
<path d="M687.428 420.485L688.285 426.498L689.142 432.508" stroke="#dddddd" stroke-width="5" stroke-linecap="round"/>
<path d="M684.699 401.34L685.557 407.353L686.414 413.363" stroke="#dddddd" stroke-width="5" stroke-linecap="round"/>
<path d="M680.859 374.388L681.717 380.401L682.574 386.411" stroke="#dddddd" stroke-width="5" stroke-linecap="round"/>
<path d="M675.801 338.896L676.658 344.909L677.515 350.919" stroke="#dddddd" stroke-width="5" stroke-linecap="round"/>
<path d="M672.574 316.25L673.432 322.263L674.289 328.274" stroke="#dddddd" stroke-width="5" stroke-linecap="round"/>
<path d="M669.678 295.914L670.535 301.927L671.392 307.937" stroke="#dddddd" stroke-width="5" stroke-linecap="round"/>
<path d="M662.609 289.377L668.622 288.52L674.633 287.663" stroke="#dddddd" stroke-width="5" stroke-linecap="round"/>
<path d="M672.75 360.535L678.763 359.678L684.773 358.821" stroke="#dddddd" stroke-width="5" stroke-linecap="round"/>
<path d="M673.998 369.286L680.011 368.429L686.021 367.571" stroke="#dddddd" stroke-width="5" stroke-linecap="round"/>
<path d="M677.664 395.013L683.677 394.155L689.687 393.298" stroke="#dddddd" stroke-width="5" stroke-linecap="round"/>
<path d="M689.18 475.832L695.193 474.974L701.203 474.117" stroke="#dddddd" stroke-width="5" stroke-linecap="round"/>
<path d="M695.982 523.574L701.995 522.717L708.006 521.859" stroke="#dddddd" stroke-width="5" stroke-linecap="round"/>
<path d="M699.918 551.19L705.931 550.333L711.941 549.476" stroke="#dddddd" stroke-width="5" stroke-linecap="round"/>
<path d="M701.211 560.255L707.224 559.398L713.234 558.541" stroke="#dddddd" stroke-width="5" stroke-linecap="round"/>
<path d="M705.16 587.977L711.173 587.119L717.183 586.262" stroke="#dddddd" stroke-width="5" stroke-linecap="round"/>
<path d="M711.988 635.895L718.001 635.037L724.011 634.18" stroke="#dddddd" stroke-width="5" stroke-linecap="round"/>
<path d="M713.227 644.575L719.24 643.718L725.25 642.86" stroke="#dddddd" stroke-width="5" stroke-linecap="round"/>
<path d="M717.131 671.982L723.144 671.124L729.154 670.267" stroke="#dddddd" stroke-width="5" stroke-linecap="round"/>
<path d="M718.389 680.802L724.402 679.945L730.412 679.087" stroke="#dddddd" stroke-width="5" stroke-linecap="round"/>
<path d="M722.658 710.763L728.671 709.906L734.681 709.048" stroke="#dddddd" stroke-width="5" stroke-linecap="round"/>
<path d="M729.201 756.685L735.214 755.827L741.224 754.97" stroke="#dddddd" stroke-width="5" stroke-linecap="round"/>
<path d="M805.136 961.806L762.709 948.8" stroke="#dddddd" stroke-width="5" stroke-linecap="round"/>
<path d="M821.715 966.887L1329.43 1122.5" stroke="#dddddd" stroke-width="5" stroke-linecap="round"/>
<path d="M1360.46 1132.01L1366.27 1133.78L1372.08 1135.55" stroke="#dddddd" stroke-width="5" stroke-linecap="round"/>
<path d="M1377.14 1137.12L1382.95 1138.89L1388.76 1140.66" stroke="#dddddd" stroke-width="5" stroke-linecap="round"/>
<path d="M1394.6 1142.49L1400.41 1144.26L1406.22 1146.03" stroke="#dddddd" stroke-width="5" stroke-linecap="round"/>
<path d="M1427.08 1152.45L1432.89 1154.22L1438.7 1155.99" stroke="#dddddd" stroke-width="5" stroke-linecap="round"/>
<path d="M1443.68 1157.54L1449.49 1159.31L1455.3 1161.08" stroke="#dddddd" stroke-width="5" stroke-linecap="round"/>
<path d="M1460.2 1162.6L1466.01 1164.37L1471.81 1166.14" stroke="#dddddd" stroke-width="5" stroke-linecap="round"/>
<path d="M1516.8 1179.95L1522.61 1181.72L1528.41 1183.49" stroke="#dddddd" stroke-width="5" stroke-linecap="round"/>
<path d="M1533.2 1184.97L1539.01 1186.74L1544.82 1188.51" stroke="#dddddd" stroke-width="5" stroke-linecap="round"/>
<path d="M1353.57 1136.25L1355.35 1130.44L1357.11 1124.63" stroke="#dddddd" stroke-width="5" stroke-linecap="round"/>
<path d="M1412.65 1154.36L1414.43 1148.55L1416.19 1142.74" stroke="#dddddd" stroke-width="5" stroke-linecap="round"/>
<path d="M1420.67 1156.82L1422.44 1151.01L1424.21 1145.2" stroke="#dddddd" stroke-width="5" stroke-linecap="round"/>
<path d="M1478.87 1174.65L1480.64 1168.84L1482.41 1163.04" stroke="#dddddd" stroke-width="5" stroke-linecap="round"/>
<path d="M1486.06 1176.86L1487.83 1171.05L1489.6 1165.24" stroke="#dddddd" stroke-width="5" stroke-linecap="round"/>
<path d="M1493.56 1179.16L1495.34 1173.35L1497.1 1167.54" stroke="#dddddd" stroke-width="5" stroke-linecap="round"/>
<path d="M1500.88 1181.4L1502.65 1175.59L1504.42 1169.78" stroke="#dddddd" stroke-width="5" stroke-linecap="round"/>
<path d="M1507.93 1183.56L1509.7 1177.75L1511.47 1171.94" stroke="#dddddd" stroke-width="5" stroke-linecap="round"/>
<path d="M379.086 985.336L762.71 948.8" stroke="#dddddd" stroke-width="5" stroke-linecap="round"/>
<path d="M346.686 988.421L352.732 987.847L358.776 987.273" stroke="#dddddd" stroke-width="5" stroke-linecap="round"/>
<path d="M313.793 991.55L319.84 990.976L325.883 990.402" stroke="#dddddd" stroke-width="5" stroke-linecap="round"/>
<path d="M295.961 993.248L302.008 992.674L308.051 992.1" stroke="#dddddd" stroke-width="5" stroke-linecap="round"/>
<path d="M253.66 997.276L259.707 996.703L265.751 996.128" stroke="#dddddd" stroke-width="5" stroke-linecap="round"/>
<path d="M235.209 999.034L241.256 998.46L247.299 997.886" stroke="#dddddd" stroke-width="5" stroke-linecap="round"/>
<path d="M215.865 1000.88L221.912 1000.3L227.956 999.728" stroke="#dddddd" stroke-width="5" stroke-linecap="round"/>
<path d="M199.195 1002.46L205.242 1001.89L211.286 1001.32" stroke="#dddddd" stroke-width="5" stroke-linecap="round"/>
<path d="M180.037 1004.29L186.084 1003.71L192.128 1003.14" stroke="#dddddd" stroke-width="5" stroke-linecap="round"/>
<path d="M155.049 1006.67L161.095 1006.09L167.139 1005.52" stroke="#dddddd" stroke-width="5" stroke-linecap="round"/>
<path d="M129.406 1009.11L135.453 1008.54L141.497 1007.96" stroke="#dddddd" stroke-width="5" stroke-linecap="round"/>
<path d="M100.33 1011.88L106.377 1011.3L112.421 1010.73" stroke="#dddddd" stroke-width="5" stroke-linecap="round"/>
<path d="M83.1641 1013.51L89.2107 1012.94L95.2545 1012.37" stroke="#dddddd" stroke-width="5" stroke-linecap="round"/>
<path d="M66.0996 1015.14L72.1462 1014.56L78.1901 1013.99" stroke="#dddddd" stroke-width="5" stroke-linecap="round"/>
<path d="M48.9336 1016.77L54.9802 1016.2L61.024 1015.62" stroke="#dddddd" stroke-width="5" stroke-linecap="round"/>
<path d="M27.8691 1018.78L33.9158 1018.21L39.9596 1017.63" stroke="#dddddd" stroke-width="5" stroke-linecap="round"/>
<path d="M5.46484 1020.91L11.5115 1020.34L17.5552 1019.76" stroke="#dddddd" stroke-width="5" stroke-linecap="round"/>
<path d="M23.4351 1025.31L22.8612 1019.26L22.2871 1013.22" stroke="#dddddd" stroke-width="5" stroke-linecap="round"/>
<path d="M121.681 1015.95L121.107 1009.9L120.533 1003.86" stroke="#dddddd" stroke-width="5" stroke-linecap="round"/>
<path d="M149.496 1013.3L148.922 1007.25L148.348 1001.21" stroke="#dddddd" stroke-width="5" stroke-linecap="round"/>
<path d="M176.466 1010.73L175.892 1004.69L175.318 998.642" stroke="#dddddd" stroke-width="5" stroke-linecap="round"/>
<path d="M274.554 1001.39L273.98 995.345L273.406 989.301" stroke="#dddddd" stroke-width="5" stroke-linecap="round"/>
<path d="M281.679 1000.71L281.105 994.666L280.531 988.623" stroke="#dddddd" stroke-width="5" stroke-linecap="round"/>
<path d="M289.453 999.972L288.879 993.926L288.305 987.882" stroke="#dddddd" stroke-width="5" stroke-linecap="round"/>
<path d="M335.527 995.585L334.953 989.538L334.379 983.494" stroke="#dddddd" stroke-width="5" stroke-linecap="round"/>
<path d="M342.968 994.876L342.394 988.829L341.82 982.786" stroke="#dddddd" stroke-width="5" stroke-linecap="round"/>
<path d="M367.796 992.512L367.223 986.465L366.648 980.421" stroke="#dddddd" stroke-width="5" stroke-linecap="round"/>
<path d="M417.365 987.791L416.791 981.744L416.217 975.701" stroke="#dddddd" stroke-width="5" stroke-linecap="round"/>
<path d="M733.107 1266.75L762.708 948.8" stroke="#dddddd" stroke-width="5" stroke-linecap="round"/>
<path d="M728.153 1319.97L727.598 1326.01L727.043 1332.06" stroke="#dddddd" stroke-width="5" stroke-linecap="round"/>
<path d="M726.252 1340.38L725.697 1346.42L725.143 1352.47" stroke="#dddddd" stroke-width="5" stroke-linecap="round"/>
<path d="M724.426 1359.99L723.871 1366.04L723.316 1372.09" stroke="#dddddd" stroke-width="5" stroke-linecap="round"/>
<path d="M721.258 1394L720.703 1400.05L720.148 1406.09" stroke="#dddddd" stroke-width="5" stroke-linecap="round"/>
<path d="M717.795 1431.19L717.24 1437.24L716.686 1443.28" stroke="#dddddd" stroke-width="5" stroke-linecap="round"/>
<path d="M714.395 1467.71L713.84 1473.76L713.285 1479.81" stroke="#dddddd" stroke-width="5" stroke-linecap="round"/>
<path d="M712.508 1487.98L711.953 1494.03L711.398 1500.07" stroke="#dddddd" stroke-width="5" stroke-linecap="round"/>
<path d="M710.004 1514.86L709.449 1520.91L708.895 1526.96" stroke="#dddddd" stroke-width="5" stroke-linecap="round"/>
<path d="M707.383 1542.83L706.828 1548.88L706.273 1554.92" stroke="#dddddd" stroke-width="5" stroke-linecap="round"/>
<path d="M704.707 1571.74L704.152 1577.79L703.598 1583.83" stroke="#dddddd" stroke-width="5" stroke-linecap="round"/>
<path d="M702.911 1591.05L702.355 1597.1L701.801 1603.14" stroke="#dddddd" stroke-width="5" stroke-linecap="round"/>
<path d="M695.049 1609.96L701.097 1610.51L707.143 1611.07" stroke="#dddddd" stroke-width="5" stroke-linecap="round"/>
<path d="M694.236 1618.69L700.285 1619.25L706.33 1619.8" stroke="#dddddd" stroke-width="5" stroke-linecap="round"/>
<path d="M693.41 1627.55L699.458 1628.11L705.504 1628.66" stroke="#dddddd" stroke-width="5" stroke-linecap="round"/>
<path d="M699.42 1563.01L705.468 1563.57L711.514 1564.12" stroke="#dddddd" stroke-width="5" stroke-linecap="round"/>
<path d="M702.1 1534.23L708.148 1534.79L714.194 1535.34" stroke="#dddddd" stroke-width="5" stroke-linecap="round"/>
<path d="M704.797 1505.28L710.845 1505.83L716.891 1506.39" stroke="#dddddd" stroke-width="5" stroke-linecap="round"/>
<path d="M709.074 1459.33L715.123 1459.89L721.168 1460.44" stroke="#dddddd" stroke-width="5" stroke-linecap="round"/>
<path d="M709.881 1450.68L715.929 1451.23L721.975 1451.79" stroke="#dddddd" stroke-width="5" stroke-linecap="round"/>
<path d="M712.51 1422.45L718.558 1423.01L724.604 1423.56" stroke="#dddddd" stroke-width="5" stroke-linecap="round"/>
<path d="M713.326 1413.68L719.374 1414.24L725.42 1414.79" stroke="#dddddd" stroke-width="5" stroke-linecap="round"/>
<path d="M715.689 1388.31L721.738 1388.87L727.783 1389.42" stroke="#dddddd" stroke-width="5" stroke-linecap="round"/>
<path d="M716.502 1379.58L722.55 1380.13L728.596 1380.69" stroke="#dddddd" stroke-width="5" stroke-linecap="round"/>
<path d="M722.891 1310.96L728.939 1311.52L734.985 1312.07" stroke="#dddddd" stroke-width="5" stroke-linecap="round"/>
<path d="M723.689 1302.4L729.738 1302.95L735.783 1303.5" stroke="#dddddd" stroke-width="5" stroke-linecap="round"/>
<path d="M724.506 1293.63L730.554 1294.18L736.6 1294.74" stroke="#dddddd" stroke-width="5" stroke-linecap="round"/>
<path d="M725.338 1284.69L731.386 1285.25L737.432 1285.8" stroke="#dddddd" stroke-width="5" stroke-linecap="round"/>
<path d="M728.836 1247.11L734.884 1247.67L740.93 1248.22" stroke="#dddddd" stroke-width="5" stroke-linecap="round"/>
<path d="M911.658 910.532L762.709 948.8" stroke="#dddddd" stroke-width="5" stroke-linecap="round"/>
<path d="M947.896 901.221L942.014 902.736L936.135 904.249" stroke="#dddddd" stroke-width="5" stroke-linecap="round"/>
<path d="M966.369 896.475L960.487 897.989L954.607 899.503" stroke="#dddddd" stroke-width="5" stroke-linecap="round"/>
<path d="M984.515 891.812L978.633 893.327L972.754 894.841" stroke="#dddddd" stroke-width="5" stroke-linecap="round"/>
<path d="M1002.12 887.29L996.235 888.804L990.355 890.318" stroke="#dddddd" stroke-width="5" stroke-linecap="round"/>
<path d="M1020.18 882.643L1014.3 884.157L1008.42 885.671" stroke="#dddddd" stroke-width="5" stroke-linecap="round"/>
<path d="M1054.85 873.74L1048.97 875.254L1043.09 876.768" stroke="#dddddd" stroke-width="5" stroke-linecap="round"/>
<path d="M1080.51 867.147L1074.63 868.661L1068.75 870.175" stroke="#dddddd" stroke-width="5" stroke-linecap="round"/>
<path d="M1098.41 862.549L1092.52 864.063L1086.64 865.577" stroke="#dddddd" stroke-width="5" stroke-linecap="round"/>
<path d="M1125.31 855.637L1119.43 857.151L1113.55 858.665" stroke="#dddddd" stroke-width="5" stroke-linecap="round"/>
<path d="M1152.29 848.704L1146.41 850.219L1140.53 851.732" stroke="#dddddd" stroke-width="5" stroke-linecap="round"/>
<path d="M1177.87 842.132L1171.99 843.646L1166.11 845.16" stroke="#dddddd" stroke-width="5" stroke-linecap="round"/>
<path d="M1196.89 837.246L1191 838.76L1185.12 840.274" stroke="#dddddd" stroke-width="5" stroke-linecap="round"/>
<path d="M1217.85 831.859L1211.97 833.373L1206.09 834.887" stroke="#dddddd" stroke-width="5" stroke-linecap="round"/>
<path d="M1261.2 820.713L1255.32 822.228L1249.44 823.741" stroke="#dddddd" stroke-width="5" stroke-linecap="round"/>
<path d="M1289.28 813.505L1283.4 815.02L1277.52 816.533" stroke="#dddddd" stroke-width="5" stroke-linecap="round"/>
<path d="M1323.58 804.693L1317.7 806.207L1311.82 807.721" stroke="#dddddd" stroke-width="5" stroke-linecap="round"/>
<path d="M1303.68 803.534L1305.2 809.416L1306.71 815.295" stroke="#dddddd" stroke-width="5" stroke-linecap="round"/>
<path d="M1295.12 805.733L1296.64 811.615L1298.15 817.495" stroke="#dddddd" stroke-width="5" stroke-linecap="round"/>
<path d="M1267.22 812.903L1268.73 818.785L1270.24 824.665" stroke="#dddddd" stroke-width="5" stroke-linecap="round"/>
<path d="M1240.73 819.709L1242.24 825.591L1243.76 831.471" stroke="#dddddd" stroke-width="5" stroke-linecap="round"/>
<path d="M1232.21 821.897L1233.73 827.779L1235.24 833.658" stroke="#dddddd" stroke-width="5" stroke-linecap="round"/>
<path d="M1223.82 824.053L1225.34 829.935L1226.85 835.814" stroke="#dddddd" stroke-width="5" stroke-linecap="round"/>
<path d="M1158.16 840.924L1159.68 846.806L1161.19 852.685" stroke="#dddddd" stroke-width="5" stroke-linecap="round"/>
<path d="M1131.87 847.68L1133.38 853.562L1134.9 859.441" stroke="#dddddd" stroke-width="5" stroke-linecap="round"/>
<path d="M1105.21 854.53L1106.73 860.412L1108.24 866.291" stroke="#dddddd" stroke-width="5" stroke-linecap="round"/>
<path d="M1059.94 866.161L1061.46 872.043L1062.97 877.922" stroke="#dddddd" stroke-width="5" stroke-linecap="round"/>
<path d="M1035.64 872.405L1037.15 878.287L1038.67 884.166" stroke="#dddddd" stroke-width="5" stroke-linecap="round"/>
<path d="M1027.29 874.55L1028.81 880.432L1030.32 886.311" stroke="#dddddd" stroke-width="5" stroke-linecap="round"/>
<path d="M929.254 899.74L930.768 905.622L932.282 911.502" stroke="#dddddd" stroke-width="5" stroke-linecap="round"/>
<path d="M839.656 922.762L841.171 928.644L842.684 934.523" stroke="#dddddd" stroke-width="5" stroke-linecap="round"/>
<path d="M780.204 903.227L762.709 948.804" stroke="#dddddd" stroke-width="5" stroke-linecap="round"/>
<path d="M932.352 506.831L930.181 512.503L928.012 518.173" stroke="#dddddd" stroke-width="5" stroke-linecap="round"/>
<path d="M919.089 541.423L916.918 547.095L914.748 552.765" stroke="#dddddd" stroke-width="5" stroke-linecap="round"/>
<path d="M912.563 558.385L910.392 564.058L908.223 569.728" stroke="#dddddd" stroke-width="5" stroke-linecap="round"/>
<path d="M904.581 579.179L902.41 584.852L900.24 590.522" stroke="#dddddd" stroke-width="5" stroke-linecap="round"/>
<path d="M898.055 596.182L895.884 601.854L893.715 607.524" stroke="#dddddd" stroke-width="5" stroke-linecap="round"/>
<path d="M891.52 613.237L889.349 618.91L887.18 624.58" stroke="#dddddd" stroke-width="5" stroke-linecap="round"/>
<path d="M877.932 648.602L875.761 654.274L873.592 659.944" stroke="#dddddd" stroke-width="5" stroke-linecap="round"/>
<path d="M871.139 666.333L868.968 672.005L866.799 677.675" stroke="#dddddd" stroke-width="5" stroke-linecap="round"/>
<path d="M855.266 707.685L853.095 713.358L850.926 719.028" stroke="#dddddd" stroke-width="5" stroke-linecap="round"/>
<path d="M847.165 728.789L844.994 734.461L842.824 740.131" stroke="#dddddd" stroke-width="5" stroke-linecap="round"/>
<path d="M827.674 779.562L825.504 785.235L823.334 790.905" stroke="#dddddd" stroke-width="5" stroke-linecap="round"/>
<path d="M821.266 796.258L819.095 801.931L816.926 807.601" stroke="#dddddd" stroke-width="5" stroke-linecap="round"/>
<path d="M801.649 847.363L799.478 853.035L797.309 858.705" stroke="#dddddd" stroke-width="5" stroke-linecap="round"/>
<path d="M789.385 879.308L787.215 884.98L785.045 890.65" stroke="#dddddd" stroke-width="5" stroke-linecap="round"/>
<path d="M780.336 885.934L786.009 888.105L791.679 890.275" stroke="#dddddd" stroke-width="5" stroke-linecap="round"/>
<path d="M788.504 864.659L794.177 866.83L799.847 869" stroke="#dddddd" stroke-width="5" stroke-linecap="round"/>
<path d="M798.633 838.272L804.306 840.443L809.975 842.612" stroke="#dddddd" stroke-width="5" stroke-linecap="round"/>
<path d="M801.852 829.884L807.524 832.054L813.194 834.224" stroke="#dddddd" stroke-width="5" stroke-linecap="round"/>
<path d="M805 821.685L810.673 823.856L816.343 826.025" stroke="#dddddd" stroke-width="5" stroke-linecap="round"/>
<path d="M808.105 813.592L813.778 815.763L819.448 817.933" stroke="#dddddd" stroke-width="5" stroke-linecap="round"/>
<path d="M824.895 769.858L830.567 772.029L836.237 774.198" stroke="#dddddd" stroke-width="5" stroke-linecap="round"/>
<path d="M827.941 761.919L833.614 764.09L839.284 766.26" stroke="#dddddd" stroke-width="5" stroke-linecap="round"/>
<path d="M831.115 753.649L836.788 755.82L842.458 757.989" stroke="#dddddd" stroke-width="5" stroke-linecap="round"/>
<path d="M834.213 745.58L839.886 747.751L845.555 749.92" stroke="#dddddd" stroke-width="5" stroke-linecap="round"/>
<path d="M852.043 699.133L857.716 701.304L863.386 703.473" stroke="#dddddd" stroke-width="5" stroke-linecap="round"/>
<path d="M855.322 690.59L860.995 692.761L866.665 694.931" stroke="#dddddd" stroke-width="5" stroke-linecap="round"/>
<path d="M858.469 682.392L864.141 684.562L869.811 686.732" stroke="#dddddd" stroke-width="5" stroke-linecap="round"/>
<path d="M875.434 638.195L881.106 640.366L886.776 642.536" stroke="#dddddd" stroke-width="5" stroke-linecap="round"/>
<path d="M878.482 630.257L884.155 632.427L889.825 634.597" stroke="#dddddd" stroke-width="5" stroke-linecap="round"/>
<path d="M915.775 533.102L921.448 535.273L927.118 537.443" stroke="#dddddd" stroke-width="5" stroke-linecap="round"/>
<path d="M918.65 525.614L924.323 527.785L929.993 529.955" stroke="#dddddd" stroke-width="5" stroke-linecap="round"/>
<path d="M928.637 499.6L934.309 501.771L939.979 503.94" stroke="#dddddd" stroke-width="5" stroke-linecap="round"/>
<path d="M776.447 933.304L762.709 948.8" stroke="#dddddd" stroke-width="5" stroke-linecap="round"/>
<path d="M823.494 880.211L819.464 884.755L815.436 889.297" stroke="#dddddd" stroke-width="5" stroke-linecap="round"/>
<path d="M835.858 866.257L831.827 870.801L827.799 875.343" stroke="#dddddd" stroke-width="5" stroke-linecap="round"/>
<path d="M859.317 839.778L855.286 844.322L851.258 848.864" stroke="#dddddd" stroke-width="5" stroke-linecap="round"/>
<path d="M871.688 825.816L867.657 830.36L863.629 834.902" stroke="#dddddd" stroke-width="5" stroke-linecap="round"/>
<path d="M890.77 804.266L886.739 808.81L882.711 813.352" stroke="#dddddd" stroke-width="5" stroke-linecap="round"/>
<path d="M915.496 776.369L911.466 780.913L907.438 785.454" stroke="#dddddd" stroke-width="5" stroke-linecap="round"/>
<path d="M933.76 755.743L929.73 760.287L925.701 764.828" stroke="#dddddd" stroke-width="5" stroke-linecap="round"/>
<path d="M965.295 720.149L961.265 724.693L957.236 729.235" stroke="#dddddd" stroke-width="5" stroke-linecap="round"/>
<path d="M983.418 699.704L979.388 704.248L975.359 708.79" stroke="#dddddd" stroke-width="5" stroke-linecap="round"/>
<path d="M996.608 684.817L992.577 689.361L988.549 693.903" stroke="#dddddd" stroke-width="5" stroke-linecap="round"/>
<path d="M1014.69 664.406L1010.66 668.95L1006.63 673.492" stroke="#dddddd" stroke-width="5" stroke-linecap="round"/>
<path d="M1046.31 628.72L1042.28 633.264L1038.25 637.806" stroke="#dddddd" stroke-width="5" stroke-linecap="round"/>
<path d="M1059.32 614.036L1055.29 618.58L1051.26 623.122" stroke="#dddddd" stroke-width="5" stroke-linecap="round"/>
<path d="M1072.45 599.219L1068.42 603.763L1064.39 608.305" stroke="#dddddd" stroke-width="5" stroke-linecap="round"/>
<path d="M1027.55 640.725L1032.09 644.755L1036.63 648.784" stroke="#dddddd" stroke-width="5" stroke-linecap="round"/>
<path d="M1021.58 647.457L1026.13 651.488L1030.67 655.516" stroke="#dddddd" stroke-width="5" stroke-linecap="round"/>
<path d="M1015.93 653.837L1020.48 657.867L1025.02 661.896" stroke="#dddddd" stroke-width="5" stroke-linecap="round"/>
<path d="M996.896 675.321L1001.44 679.352L1005.98 683.38" stroke="#dddddd" stroke-width="5" stroke-linecap="round"/>
<path d="M965.605 710.639L970.149 714.67L974.691 718.698" stroke="#dddddd" stroke-width="5" stroke-linecap="round"/>
<path d="M946.418 732.297L950.962 736.328L955.504 740.356" stroke="#dddddd" stroke-width="5" stroke-linecap="round"/>
<path d="M940.363 739.132L944.907 743.162L949.449 747.191" stroke="#dddddd" stroke-width="5" stroke-linecap="round"/>
<path d="M934.822 745.386L939.366 749.416L943.908 753.445" stroke="#dddddd" stroke-width="5" stroke-linecap="round"/>
<path d="M915.934 766.704L920.478 770.735L925.019 774.763" stroke="#dddddd" stroke-width="5" stroke-linecap="round"/>
<path d="M897.738 787.242L902.282 791.272L906.824 795.301" stroke="#dddddd" stroke-width="5" stroke-linecap="round"/>
<path d="M891.82 793.921L896.364 797.951L900.906 801.98" stroke="#dddddd" stroke-width="5" stroke-linecap="round"/>
<path d="M873.021 815.14L877.565 819.17L882.107 823.199" stroke="#dddddd" stroke-width="5" stroke-linecap="round"/>
<path d="M841.672 850.523L846.216 854.554L850.758 858.582" stroke="#dddddd" stroke-width="5" stroke-linecap="round"/>
<path d="M806.451 890.279L810.995 894.31L815.537 898.338" stroke="#dddddd" stroke-width="5" stroke-linecap="round"/>
<path d="M835.83 857.117L840.374 861.148L844.916 865.176" stroke="#dddddd" stroke-width="5" stroke-linecap="round"/>
<path d="M775.763 963.679L762.709 948.8" stroke="#dddddd" stroke-width="5" stroke-linecap="round"/>
<path d="M789.706 979.55L785.695 974.989L781.686 970.43" stroke="#dddddd" stroke-width="5" stroke-linecap="round"/>
<path d="M816.151 1009.69L812.14 1005.13L808.131 1000.57" stroke="#dddddd" stroke-width="5" stroke-linecap="round"/>
<path d="M839.911 1036.78L835.9 1032.22L831.891 1027.66" stroke="#dddddd" stroke-width="5" stroke-linecap="round"/>
<path d="M852.212 1050.8L848.201 1046.24L844.191 1041.68" stroke="#dddddd" stroke-width="5" stroke-linecap="round"/>
<path d="M869.567 1070.58L865.556 1066.02L861.547 1061.46" stroke="#dddddd" stroke-width="5" stroke-linecap="round"/>
<path d="M881.216 1083.86L877.205 1079.3L873.195 1074.74" stroke="#dddddd" stroke-width="5" stroke-linecap="round"/>
<path d="M905.304 1111.32L901.293 1106.76L897.283 1102.2" stroke="#dddddd" stroke-width="5" stroke-linecap="round"/>
<path d="M916.7 1124.33L912.689 1119.77L908.68 1115.21" stroke="#dddddd" stroke-width="5" stroke-linecap="round"/>
<path d="M928.29 1137.52L924.279 1132.96L920.27 1128.4" stroke="#dddddd" stroke-width="5" stroke-linecap="round"/>
<path d="M946.149 1157.88L942.138 1153.32L938.129 1148.76" stroke="#dddddd" stroke-width="5" stroke-linecap="round"/>
<path d="M964.749 1179.1L960.738 1174.54L956.729 1169.98" stroke="#dddddd" stroke-width="5" stroke-linecap="round"/>
<path d="M992.731 1210.98L988.72 1206.41L984.711 1201.86" stroke="#dddddd" stroke-width="5" stroke-linecap="round"/>
<path d="M1015.3 1236.72L1011.28 1232.16L1007.28 1227.6" stroke="#dddddd" stroke-width="5" stroke-linecap="round"/>
<path d="M1041.61 1257.51L1037.05 1261.52L1032.49 1265.53" stroke="#dddddd" stroke-width="5" stroke-linecap="round"/>
<path d="M1035.8 1250.88L1031.24 1254.89L1026.68 1258.9" stroke="#dddddd" stroke-width="5" stroke-linecap="round"/>
<path d="M1030.16 1244.45L1025.6 1248.46L1021.04 1252.47" stroke="#dddddd" stroke-width="5" stroke-linecap="round"/>
<path d="M1024.41 1237.89L1019.85 1241.9L1015.29 1245.91" stroke="#dddddd" stroke-width="5" stroke-linecap="round"/>
<path d="M1007.42 1218.53L1002.86 1222.54L998.303 1226.55" stroke="#dddddd" stroke-width="5" stroke-linecap="round"/>
<path d="M1001.73 1212.05L997.17 1216.06L992.611 1220.07" stroke="#dddddd" stroke-width="5" stroke-linecap="round"/>
<path d="M984.905 1192.86L980.344 1196.88L975.785 1200.88" stroke="#dddddd" stroke-width="5" stroke-linecap="round"/>
<path d="M979.057 1186.2L974.496 1190.21L969.938 1194.22" stroke="#dddddd" stroke-width="5" stroke-linecap="round"/>
<path d="M973.473 1179.84L968.912 1183.85L964.354 1187.86" stroke="#dddddd" stroke-width="5" stroke-linecap="round"/>
<path d="M956.475 1160.46L951.914 1164.47L947.355 1168.48" stroke="#dddddd" stroke-width="5" stroke-linecap="round"/>
<path d="M937.159 1138.44L932.598 1142.45L928.039 1146.46" stroke="#dddddd" stroke-width="5" stroke-linecap="round"/>
<path d="M896.578 1092.18L892.018 1096.19L887.459 1100.2" stroke="#dddddd" stroke-width="5" stroke-linecap="round"/>
<path d="M890.963 1085.78L886.402 1089.79L881.844 1093.8" stroke="#dddddd" stroke-width="5" stroke-linecap="round"/>
<path d="M860.703 1051.29L856.143 1055.3L851.584 1059.31" stroke="#dddddd" stroke-width="5" stroke-linecap="round"/>
<path d="M831.801 1018.35L827.24 1022.36L822.682 1026.37" stroke="#dddddd" stroke-width="5" stroke-linecap="round"/>
<path d="M825.909 1011.63L821.348 1015.64L816.789 1019.65" stroke="#dddddd" stroke-width="5" stroke-linecap="round"/>
<path d="M807.629 990.793L803.068 994.804L798.51 998.814" stroke="#dddddd" stroke-width="5" stroke-linecap="round"/>
<path d="M790.08 970.79L785.52 974.801L780.961 978.81" stroke="#dddddd" stroke-width="5" stroke-linecap="round"/>
<path d="M753.543 959.933L762.71 948.8" stroke="#dddddd" stroke-width="5" stroke-linecap="round"/>
<path d="M731.639 986.478L735.51 981.797L739.379 977.119" stroke="#dddddd" stroke-width="5" stroke-linecap="round"/>
<path d="M713.895 1008.05L717.766 1003.37L721.635 998.689" stroke="#dddddd" stroke-width="5" stroke-linecap="round"/>
<path d="M695.73 1030.05L699.602 1025.37L703.471 1020.7" stroke="#dddddd" stroke-width="5" stroke-linecap="round"/>
<path d="M672.643 1058.11L676.514 1053.43L680.383 1048.75" stroke="#dddddd" stroke-width="5" stroke-linecap="round"/>
<path d="M649.395 1086.32L653.266 1081.64L657.135 1076.96" stroke="#dddddd" stroke-width="5" stroke-linecap="round"/>
<path d="M636.787 1101.58L640.658 1096.9L644.528 1092.23" stroke="#dddddd" stroke-width="5" stroke-linecap="round"/>
<path d="M613.922 1129.37L617.793 1124.69L621.663 1120.01" stroke="#dddddd" stroke-width="5" stroke-linecap="round"/>
<path d="M589.967 1158.4L593.838 1153.72L597.707 1149.04" stroke="#dddddd" stroke-width="5" stroke-linecap="round"/>
<path d="M577.697 1173.33L581.569 1168.65L585.438 1163.97" stroke="#dddddd" stroke-width="5" stroke-linecap="round"/>
<path d="M559.66 1195.21L563.531 1190.53L567.401 1185.86" stroke="#dddddd" stroke-width="5" stroke-linecap="round"/>
<path d="M541.562 1217.18L545.434 1212.5L549.303 1207.82" stroke="#dddddd" stroke-width="5" stroke-linecap="round"/>
<path d="M529.375 1231.97L533.246 1227.29L537.116 1222.61" stroke="#dddddd" stroke-width="5" stroke-linecap="round"/>
<path d="M518.334 1245.33L522.205 1240.65L526.075 1235.97" stroke="#dddddd" stroke-width="5" stroke-linecap="round"/>
<path d="M507.379 1258.66L511.25 1253.98L515.12 1249.3" stroke="#dddddd" stroke-width="5" stroke-linecap="round"/>
<path d="M507.749 1267.76L503.069 1263.89L498.391 1260.02" stroke="#dddddd" stroke-width="5" stroke-linecap="round"/>
<path d="M501.794 1274.99L497.114 1271.12L492.436 1267.25" stroke="#dddddd" stroke-width="5" stroke-linecap="round"/>
<path d="M559.348 1205.14L554.668 1201.27L549.99 1197.4" stroke="#dddddd" stroke-width="5" stroke-linecap="round"/>
<path d="M577.649 1182.94L572.969 1179.06L568.291 1175.2" stroke="#dddddd" stroke-width="5" stroke-linecap="round"/>
<path d="M608.261 1145.79L603.58 1141.91L598.902 1138.05" stroke="#dddddd" stroke-width="5" stroke-linecap="round"/>
<path d="M613.43 1139.51L608.75 1135.64L604.072 1131.77" stroke="#dddddd" stroke-width="5" stroke-linecap="round"/>
<path d="M630.966 1118.23L626.286 1114.36L621.607 1110.49" stroke="#dddddd" stroke-width="5" stroke-linecap="round"/>
<path d="M636.757 1111.21L632.077 1107.34L627.398 1103.47" stroke="#dddddd" stroke-width="5" stroke-linecap="round"/>
<path d="M667.372 1074.05L662.692 1070.18L658.014 1066.31" stroke="#dddddd" stroke-width="5" stroke-linecap="round"/>
<path d="M672.798 1067.47L668.118 1063.6L663.439 1059.73" stroke="#dddddd" stroke-width="5" stroke-linecap="round"/>
<path d="M689.745 1046.9L685.065 1043.03L680.387 1039.16" stroke="#dddddd" stroke-width="5" stroke-linecap="round"/>
<path d="M695.454 1039.97L690.774 1036.1L686.096 1032.23" stroke="#dddddd" stroke-width="5" stroke-linecap="round"/>
<path d="M712.792 1018.94L708.112 1015.06L703.434 1011.2" stroke="#dddddd" stroke-width="5" stroke-linecap="round"/>
<path d="M731.374 996.386L726.694 992.515L722.016 988.645" stroke="#dddddd" stroke-width="5" stroke-linecap="round"/>
<path d="M748.819 975.216L744.139 971.344L739.461 967.475" stroke="#dddddd" stroke-width="5" stroke-linecap="round"/>
<path d="M719.318 963.009L762.708 948.8" stroke="#dddddd" stroke-width="5" stroke-linecap="round"/>
<path d="M687.541 973.414L693.315 971.529L699.086 969.644" stroke="#dddddd" stroke-width="5" stroke-linecap="round"/>
<path d="M652.324 984.945L658.098 983.06L663.869 981.175" stroke="#dddddd" stroke-width="5" stroke-linecap="round"/>
<path d="M618.367 996.054L624.141 994.168L629.912 992.284" stroke="#dddddd" stroke-width="5" stroke-linecap="round"/>
<path d="M601.311 1001.64L607.084 999.754L612.855 997.869" stroke="#dddddd" stroke-width="5" stroke-linecap="round"/>
<path d="M558.594 1015.63L564.367 1013.74L570.138 1011.86" stroke="#dddddd" stroke-width="5" stroke-linecap="round"/>
<path d="M526.926 1025.99L532.7 1024.11L538.471 1022.22" stroke="#dddddd" stroke-width="5" stroke-linecap="round"/>
<path d="M500.795 1034.56L506.569 1032.68L512.34 1030.79" stroke="#dddddd" stroke-width="5" stroke-linecap="round"/>
<path d="M475.295 1042.91L481.069 1041.03L486.84 1039.14" stroke="#dddddd" stroke-width="5" stroke-linecap="round"/>
<path d="M449.426 1051.38L455.2 1049.5L460.971 1047.61" stroke="#dddddd" stroke-width="5" stroke-linecap="round"/>
<path d="M400.391 1067.44L406.164 1065.55L411.935 1063.67" stroke="#dddddd" stroke-width="5" stroke-linecap="round"/>
<path d="M384.453 1072.65L390.227 1070.77L395.998 1068.88" stroke="#dddddd" stroke-width="5" stroke-linecap="round"/>
<path d="M368.404 1077.9L374.178 1076.01L379.949 1074.13" stroke="#dddddd" stroke-width="5" stroke-linecap="round"/>
<path d="M341.156 1086.83L346.93 1084.95L352.701 1083.06" stroke="#dddddd" stroke-width="5" stroke-linecap="round"/>
<path d="M327.934 1097.55L326.049 1091.78L324.164 1086.01" stroke="#dddddd" stroke-width="5" stroke-linecap="round"/>
<path d="M336.118 1094.87L334.232 1089.1L332.348 1083.33" stroke="#dddddd" stroke-width="5" stroke-linecap="round"/>
<path d="M361.938 1086.42L360.053 1080.64L358.168 1074.87" stroke="#dddddd" stroke-width="5" stroke-linecap="round"/>
<path d="M420.319 1067.3L418.434 1061.53L416.549 1055.76" stroke="#dddddd" stroke-width="5" stroke-linecap="round"/>
<path d="M428.075 1064.76L426.189 1058.99L424.305 1053.22" stroke="#dddddd" stroke-width="5" stroke-linecap="round"/>
<path d="M436.633 1061.96L434.748 1056.19L432.863 1050.42" stroke="#dddddd" stroke-width="5" stroke-linecap="round"/>
<path d="M444.604 1059.35L442.719 1053.58L440.834 1047.81" stroke="#dddddd" stroke-width="5" stroke-linecap="round"/>
<path d="M470.477 1050.88L468.592 1045.11L466.707 1039.33" stroke="#dddddd" stroke-width="5" stroke-linecap="round"/>
<path d="M496.188 1042.46L494.303 1036.69L492.418 1030.92" stroke="#dddddd" stroke-width="5" stroke-linecap="round"/>
<path d="M522.223 1033.94L520.338 1028.16L518.453 1022.39" stroke="#dddddd" stroke-width="5" stroke-linecap="round"/>
<path d="M547.668 1025.6L545.783 1019.83L543.898 1014.06" stroke="#dddddd" stroke-width="5" stroke-linecap="round"/>
<path d="M556.008 1022.87L554.123 1017.1L552.238 1011.33" stroke="#dddddd" stroke-width="5" stroke-linecap="round"/>
<path d="M580.397 1014.89L578.512 1009.11L576.627 1003.34" stroke="#dddddd" stroke-width="5" stroke-linecap="round"/>
<path d="M588.424 1012.26L586.539 1006.49L584.654 1000.71" stroke="#dddddd" stroke-width="5" stroke-linecap="round"/>
<path d="M596.401 1009.65L594.516 1003.87L592.631 998.103" stroke="#dddddd" stroke-width="5" stroke-linecap="round"/>
<path d="M639.596 995.505L637.711 989.731L635.826 983.96" stroke="#dddddd" stroke-width="5" stroke-linecap="round"/>
<path d="M647.614 992.879L645.728 987.105L643.844 981.334" stroke="#dddddd" stroke-width="5" stroke-linecap="round"/>
<path d="M673.752 984.32L671.867 978.547L669.982 972.776" stroke="#dddddd" stroke-width="5" stroke-linecap="round"/>
<path d="M736.129 963.896L734.244 958.122L732.359 952.351" stroke="#dddddd" stroke-width="5" stroke-linecap="round"/>
<path d="M503.608 953.264L497.55 953.697L491.494 954.131" stroke="#dddddd" stroke-width="5" stroke-linecap="round"/>
<path d="M486.395 954.471L480.337 954.904L474.281 955.337" stroke="#dddddd" stroke-width="5" stroke-linecap="round"/>
<path d="M436.53 957.967L430.471 958.4L424.416 958.833" stroke="#dddddd" stroke-width="5" stroke-linecap="round"/>
<path d="M411.038 959.753L404.979 960.187L398.924 960.62" stroke="#dddddd" stroke-width="5" stroke-linecap="round"/>
<path d="M391.315 961.136L385.257 961.569L379.201 962.003" stroke="#dddddd" stroke-width="5" stroke-linecap="round"/>
<path d="M373.612 962.377L367.554 962.81L361.498 963.244" stroke="#dddddd" stroke-width="5" stroke-linecap="round"/>
<path d="M336.133 965.004L330.075 965.438L324.02 965.871" stroke="#dddddd" stroke-width="5" stroke-linecap="round"/>
<path d="M312.528 966.659L306.47 967.092L300.414 967.526" stroke="#dddddd" stroke-width="5" stroke-linecap="round"/>
<path d="M287.137 968.439L281.079 968.872L275.023 969.306" stroke="#dddddd" stroke-width="5" stroke-linecap="round"/>
<path d="M269.047 969.707L262.989 970.14L256.934 970.574" stroke="#dddddd" stroke-width="5" stroke-linecap="round"/>
<path d="M248.844 971.124L242.786 971.557L236.73 971.99" stroke="#dddddd" stroke-width="5" stroke-linecap="round"/>
<path d="M221.569 973.036L215.511 973.469L209.455 973.902" stroke="#dddddd" stroke-width="5" stroke-linecap="round"/>
<path d="M202.848 974.331L196.79 974.764L190.734 975.197" stroke="#dddddd" stroke-width="5" stroke-linecap="round"/>
<path d="M164.842 977.012L158.784 977.446L152.729 977.879" stroke="#dddddd" stroke-width="5" stroke-linecap="round"/>
<path d="M144.903 978.393L138.845 978.826L132.789 979.259" stroke="#dddddd" stroke-width="5" stroke-linecap="round"/>
<path d="M127.68 979.618L121.622 980.051L115.566 980.484" stroke="#dddddd" stroke-width="5" stroke-linecap="round"/>
<path d="M100.088 981.552L94.0301 981.985L87.9746 982.418" stroke="#dddddd" stroke-width="5" stroke-linecap="round"/>
<path d="M82.3365 982.796L76.2781 983.229L70.2227 983.663" stroke="#dddddd" stroke-width="5" stroke-linecap="round"/>
<path d="M104.746 975.137L105.179 981.195L105.612 987.251" stroke="#dddddd" stroke-width="5" stroke-linecap="round"/>
<path d="M184.514 969.545L184.947 975.603L185.38 981.658" stroke="#dddddd" stroke-width="5" stroke-linecap="round"/>
<path d="M176.561 970.102L176.994 976.161L177.427 982.216" stroke="#dddddd" stroke-width="5" stroke-linecap="round"/>
<path d="M168.795 970.646L169.228 976.705L169.661 982.76" stroke="#dddddd" stroke-width="5" stroke-linecap="round"/>
<path d="M228.275 966.477L228.708 972.535L229.142 978.591" stroke="#dddddd" stroke-width="5" stroke-linecap="round"/>
<path d="M291.322 962.057L291.755 968.115L292.189 974.171" stroke="#dddddd" stroke-width="5" stroke-linecap="round"/>
<path d="M317.936 960.192L318.369 966.25L318.802 972.305" stroke="#dddddd" stroke-width="5" stroke-linecap="round"/>
<path d="M343.529 958.397L343.962 964.456L344.396 970.511" stroke="#dddddd" stroke-width="5" stroke-linecap="round"/>
<path d="M351.682 957.826L352.115 963.884L352.548 969.94" stroke="#dddddd" stroke-width="5" stroke-linecap="round"/>
<path d="M415.445 953.356L415.878 959.414L416.312 965.47" stroke="#dddddd" stroke-width="5" stroke-linecap="round"/>
<path d="M442.508 951.459L442.941 957.517L443.374 963.573" stroke="#dddddd" stroke-width="5" stroke-linecap="round"/>
<path d="M450.486 950.899L450.919 956.958L451.353 963.013" stroke="#dddddd" stroke-width="5" stroke-linecap="round"/>
<path d="M458.137 950.363L458.57 956.422L459.003 962.477" stroke="#dddddd" stroke-width="5" stroke-linecap="round"/>
<path d="M465.561 949.843L465.994 955.901L466.427 961.957" stroke="#dddddd" stroke-width="5" stroke-linecap="round"/>
<path d="M510.264 946.709L510.697 952.767L511.13 958.823" stroke="#dddddd" stroke-width="5" stroke-linecap="round"/>
<path d="M547.643 957.79L548.076 963.848L548.509 969.904" stroke="#dddddd" stroke-width="5" stroke-linecap="round"/>
<path d="M519.363 965.861L701.53 953.091M762.75 948.8L714.946 952.15L762.75 948.8Z" stroke="#dddddd" stroke-width="5" stroke-linecap="round"/>
<path d="M2738.29 938.921V958.098" stroke="#dddddd" stroke-width="6" stroke-linecap="round"/>
<path d="M1559.39 1193L1565.2 1194.77L1571.01 1196.54" stroke="#dddddd" stroke-width="5" stroke-linecap="round"/>
<path d="M1575.73 1198.01L1581.54 1199.78L1587.35 1201.55" stroke="#dddddd" stroke-width="5" stroke-linecap="round"/>
<path d="M1591.76 1202.92L1597.57 1204.69L1603.38 1206.46" stroke="#dddddd" stroke-width="5" stroke-linecap="round"/>
<path d="M1623.98 1212.8L1629.79 1214.57L1635.6 1216.34" stroke="#dddddd" stroke-width="5" stroke-linecap="round"/>
<path d="M1663.73 1224.98L1669.54 1226.75L1675.35 1228.52" stroke="#dddddd" stroke-width="5" stroke-linecap="round"/>
<path d="M1689.53 1232.87L1695.34 1234.64L1701.14 1236.41" stroke="#dddddd" stroke-width="5" stroke-linecap="round"/>
<path d="M1715.4 1240.82L1721.21 1242.59L1727.02 1244.36" stroke="#dddddd" stroke-width="5" stroke-linecap="round"/>
<path d="M1551.58 1196.94L1553.35 1191.13L1555.12 1185.32" stroke="#dddddd" stroke-width="5" stroke-linecap="round"/>
<path d="M1608.19 1214.29L1609.96 1208.48L1611.73 1202.67" stroke="#dddddd" stroke-width="5" stroke-linecap="round"/>
<path d="M1615.98 1216.68L1617.75 1210.87L1619.52 1205.06" stroke="#dddddd" stroke-width="5" stroke-linecap="round"/>
<path d="M1638.84 1223.68L1640.61 1217.87L1642.38 1212.07" stroke="#dddddd" stroke-width="5" stroke-linecap="round"/>
<path d="M1647.26 1226.27L1649.03 1220.46L1650.8 1214.65" stroke="#dddddd" stroke-width="5" stroke-linecap="round"/>
<path d="M1655.84 1228.89L1657.61 1223.08L1659.38 1217.28" stroke="#dddddd" stroke-width="5" stroke-linecap="round"/>
<path d="M1681.23 1236.68L1683 1230.87L1684.77 1225.06" stroke="#dddddd" stroke-width="5" stroke-linecap="round"/>
<path d="M1707.2 1244.64L1708.97 1238.83L1710.74 1233.02" stroke="#dddddd" stroke-width="5" stroke-linecap="round"/>
</svg>
